<?xml version="1.0" encoding="UTF-8" standalone="no"?>
<!DOCTYPE svg PUBLIC "-//W3C//DTD SVG 1.1//EN"
 "http://www.w3.org/Graphics/SVG/1.1/DTD/svg11.dtd">
<!-- Generated by graphviz version 2.38.0 (20140413.2041)
 -->
<!-- Title: reqs Pages: 1 -->
<svg width="469pt" height="107pt"
 viewBox="0.00 0.00 468.50 107.00" xmlns="http://www.w3.org/2000/svg" xmlns:xlink="http://www.w3.org/1999/xlink">
<g id="graph0" class="graph" transform="scale(1 1) rotate(0) translate(4 103)">
<title>reqs</title>
<polygon fill="white" stroke="none" points="-4,4 -4,-103 464.5,-103 464.5,4 -4,4"/>
<!-- 0 -->
<g id="node1" class="node"><title>0</title>
<polygon fill="#24893e" stroke="#24893e" points="54,-36 0,-36 0,-0 54,-0 54,-36"/>
<text text-anchor="middle" x="27" y="-14.3" font-family="arial" font-size="14.00">X</text>
</g>
<!-- 5 -->
<g id="node2" class="node"><title>5</title>
<ellipse fill="#72c4f3" stroke="#72c4f3" cx="169" cy="-48" rx="27" ry="18"/>
<text text-anchor="middle" x="169" y="-44.3" font-family="arial" font-size="14.00">Y</text>
</g>
<!-- 0&#45;&gt;5 -->
<g id="edge1" class="edge"><title>0&#45;&gt;5</title>
<path fill="none" stroke="black" d="M54.0048,-23.5725C76.2845,-28.3467 108.564,-35.2637 133.09,-40.5194"/>
<polygon fill="black" stroke="black" points="132.564,-43.986 143.075,-42.659 134.031,-37.1413 132.564,-43.986"/>
<text text-anchor="start" x="72" y="-40.8" font-family="arial" font-size="14.00" fill="#24893e">c</text>
<text text-anchor="start" x="80" y="-40.8" font-family="arial" font-size="14.00"> </text>
<text text-anchor="start" x="84" y="-40.8" font-family="arial" font-size="14.00" fill="#72c4f3">≥</text>
<text text-anchor="start" x="92" y="-40.8" font-family="arial" font-size="14.00"> </text>
<text text-anchor="start" x="96" y="-40.8" font-family="arial" font-size="14.00" fill="#d70000">2.0</text>
</g>
<!-- 6 -->
<g id="node3" class="node"><title>6</title>
<ellipse fill="#72c4f3" stroke="#72c4f3" cx="388" cy="-30" rx="27" ry="18"/>
<text text-anchor="middle" x="388" y="-26.3" font-family="arial" font-size="14.00">Z</text>
</g>
<!-- 0&#45;&gt;6 -->
<g id="edge2" class="edge"><title>0&#45;&gt;6</title>
<path fill="none" stroke="black" d="M54.3145,-14.2192C75.9312,-11.3136 107.378,-7.54407 135,-6 227.454,-0.831873 251.83,-1.79779 343,-18 346.274,-18.5819 349.658,-19.2958 353.028,-20.0828"/>
<polygon fill="black" stroke="black" points="352.418,-23.5387 362.971,-22.6041 354.138,-16.7535 352.418,-23.5387"/>
<text text-anchor="start" x="135" y="-10.8" font-family="arial" font-size="14.00" fill="#72c4f3">¬</text>
<text text-anchor="start" x="144" y="-10.8" font-family="arial" font-size="14.00"> </text>
<text text-anchor="start" x="148" y="-10.8" font-family="arial" font-size="14.00" fill="#ecdf4b">(</text>
<text text-anchor="start" x="153" y="-10.8" font-family="arial" font-size="14.00" fill="#24893e">c</text>
<text text-anchor="start" x="161" y="-10.8" font-family="arial" font-size="14.00"> </text>
<text text-anchor="start" x="165" y="-10.8" font-family="arial" font-size="14.00" fill="#72c4f3">≥</text>
<text text-anchor="start" x="173" y="-10.8" font-family="arial" font-size="14.00"> </text>
<text text-anchor="start" x="177" y="-10.8" font-family="arial" font-size="14.00" fill="#d70000">2.0</text>
<text text-anchor="start" x="198" y="-10.8" font-family="arial" font-size="14.00" fill="#ecdf4b">)</text>
</g>
<!-- 5&#45;&gt;5 -->
<g id="edge3" class="edge"><title>5&#45;&gt;5</title>
<path fill="none" stroke="black" d="M156.223,-63.916C152.889,-74.1504 157.148,-84 169,-84 176.778,-84 181.285,-79.7581 182.523,-73.9494"/>
<polygon fill="black" stroke="black" points="186.009,-73.629 181.777,-63.916 179.029,-74.148 186.009,-73.629"/>
<text text-anchor="start" x="146.5" y="-88.8" font-family="arial" font-size="14.00" fill="#24893e">c</text>
<text text-anchor="start" x="154.5" y="-88.8" font-family="arial" font-size="14.00"> </text>
<text text-anchor="start" x="158.5" y="-88.8" font-family="arial" font-size="14.00" fill="#72c4f3">≥</text>
<text text-anchor="start" x="166.5" y="-88.8" font-family="arial" font-size="14.00"> </text>
<text text-anchor="start" x="170.5" y="-88.8" font-family="arial" font-size="14.00" fill="#d70000">2.0</text>
</g>
<!-- 5&#45;&gt;6 -->
<g id="edge4" class="edge"><title>5&#45;&gt;6</title>
<path fill="none" stroke="black" d="M196.052,-50.3985C230.139,-52.9236 291.582,-55.3653 343,-46 347.023,-45.2672 351.165,-44.2044 355.222,-42.9697"/>
<polygon fill="black" stroke="black" points="356.681,-46.1704 365.021,-39.6362 354.427,-39.5434 356.681,-46.1704"/>
<text text-anchor="start" x="248" y="-56.8" font-family="arial" font-size="14.00" fill="#72c4f3">¬</text>
<text text-anchor="start" x="257" y="-56.8" font-family="arial" font-size="14.00"> </text>
<text text-anchor="start" x="261" y="-56.8" font-family="arial" font-size="14.00" fill="#ecdf4b">(</text>
<text text-anchor="start" x="266" y="-56.8" font-family="arial" font-size="14.00" fill="#24893e">c</text>
<text text-anchor="start" x="274" y="-56.8" font-family="arial" font-size="14.00"> </text>
<text text-anchor="start" x="278" y="-56.8" font-family="arial" font-size="14.00" fill="#72c4f3">≥</text>
<text text-anchor="start" x="286" y="-56.8" font-family="arial" font-size="14.00"> </text>
<text text-anchor="start" x="290" y="-56.8" font-family="arial" font-size="14.00" fill="#d70000">2.0</text>
<text text-anchor="start" x="311" y="-56.8" font-family="arial" font-size="14.00" fill="#ecdf4b">)</text>
</g>
<!-- 6&#45;&gt;5 -->
<g id="edge5" class="edge"><title>6&#45;&gt;5</title>
<path fill="none" stroke="black" d="M361.393,-26.2067C328.529,-22.095 269.918,-17.3228 221,-27 214.058,-28.3734 206.873,-30.704 200.165,-33.3247"/>
<polygon fill="black" stroke="black" points="198.613,-30.1808 190.761,-37.2943 201.335,-36.6298 198.613,-30.1808"/>
<text text-anchor="start" x="221" y="-31.8" font-family="arial" font-size="14.00" fill="#ecdf4b">(</text>
<text text-anchor="start" x="226" y="-31.8" font-family="arial" font-size="14.00" fill="#24893e">a</text>
<text text-anchor="start" x="234" y="-31.8" font-family="arial" font-size="14.00"> </text>
<text text-anchor="start" x="238" y="-31.8" font-family="arial" font-size="14.00" fill="#72c4f3">⊕</text>
<text text-anchor="start" x="251" y="-31.8" font-family="arial" font-size="14.00"> </text>
<text text-anchor="start" x="255" y="-31.8" font-family="arial" font-size="14.00" fill="#24893e">b</text>
<text text-anchor="start" x="264" y="-31.8" font-family="arial" font-size="14.00" fill="#ecdf4b">)</text>
<text text-anchor="start" x="269" y="-31.8" font-family="arial" font-size="14.00"> </text>
<text text-anchor="start" x="273" y="-31.8" font-family="arial" font-size="14.00" fill="#72c4f3">∧</text>
<text text-anchor="start" x="284" y="-31.8" font-family="arial" font-size="14.00"> </text>
<text text-anchor="start" x="288" y="-31.8" font-family="arial" font-size="14.00" fill="#ecdf4b">(</text>
<text text-anchor="start" x="293" y="-31.8" font-family="arial" font-size="14.00" fill="#24893e">c</text>
<text text-anchor="start" x="301" y="-31.8" font-family="arial" font-size="14.00"> </text>
<text text-anchor="start" x="305" y="-31.8" font-family="arial" font-size="14.00" fill="#72c4f3">≥</text>
<text text-anchor="start" x="313" y="-31.8" font-family="arial" font-size="14.00"> </text>
<text text-anchor="start" x="317" y="-31.8" font-family="arial" font-size="14.00" fill="#d70000">2.0</text>
<text text-anchor="start" x="338" y="-31.8" font-family="arial" font-size="14.00" fill="#ecdf4b">)</text>
</g>
<!-- 6&#45;&gt;6 -->
<g id="edge6" class="edge"><title>6&#45;&gt;6</title>
<path fill="none" stroke="black" d="M370.692,-44.0417C364.219,-54.9126 369.988,-66 388,-66 400.383,-66 406.98,-60.7595 407.79,-53.9516"/>
<polygon fill="black" stroke="black" points="411.133,-52.8919 405.308,-44.0417 404.342,-54.5925 411.133,-52.8919"/>
<text text-anchor="start" x="315.5" y="-70.8" font-family="arial" font-size="14.00" fill="#ecdf4b">(</text>
<text text-anchor="start" x="320.5" y="-70.8" font-family="arial" font-size="14.00" fill="#24893e">a</text>
<text text-anchor="start" x="328.5" y="-70.8" font-family="arial" font-size="14.00"> </text>
<text text-anchor="start" x="332.5" y="-70.8" font-family="arial" font-size="14.00" fill="#72c4f3">⊕</text>
<text text-anchor="start" x="345.5" y="-70.8" font-family="arial" font-size="14.00"> </text>
<text text-anchor="start" x="349.5" y="-70.8" font-family="arial" font-size="14.00" fill="#24893e">b</text>
<text text-anchor="start" x="358.5" y="-70.8" font-family="arial" font-size="14.00" fill="#ecdf4b">)</text>
<text text-anchor="start" x="363.5" y="-70.8" font-family="arial" font-size="14.00"> </text>
<text text-anchor="start" x="367.5" y="-70.8" font-family="arial" font-size="14.00" fill="#72c4f3">∧</text>
<text text-anchor="start" x="378.5" y="-70.8" font-family="arial" font-size="14.00"> </text>
<text text-anchor="start" x="382.5" y="-70.8" font-family="arial" font-size="14.00" fill="#ecdf4b">(</text>
<text text-anchor="start" x="387.5" y="-70.8" font-family="arial" font-size="14.00" fill="#72c4f3">¬</text>
<text text-anchor="start" x="396.5" y="-70.8" font-family="arial" font-size="14.00"> </text>
<text text-anchor="start" x="400.5" y="-70.8" font-family="arial" font-size="14.00" fill="#ecdf4b">(</text>
<text text-anchor="start" x="405.5" y="-70.8" font-family="arial" font-size="14.00" fill="#24893e">c</text>
<text text-anchor="start" x="413.5" y="-70.8" font-family="arial" font-size="14.00"> </text>
<text text-anchor="start" x="417.5" y="-70.8" font-family="arial" font-size="14.00" fill="#72c4f3">≥</text>
<text text-anchor="start" x="425.5" y="-70.8" font-family="arial" font-size="14.00"> </text>
<text text-anchor="start" x="429.5" y="-70.8" font-family="arial" font-size="14.00" fill="#d70000">2.0</text>
<text text-anchor="start" x="450.5" y="-70.8" font-family="arial" font-size="14.00" fill="#ecdf4b">)</text>
<text text-anchor="start" x="455.5" y="-70.8" font-family="arial" font-size="14.00" fill="#ecdf4b">)</text>
</g>
</g>
</svg>
